<svg width="208" height="67" viewBox="0 0 208 67" fill="none" xmlns="http://www.w3.org/2000/svg">
<g clip-path="url(#clip0_1_2)">
<path d="M206.75 42.94C206.14 43.67 205.06 43.77 204.33 43.16L202.88 41.95C194.65 56.42 179.97 66.06 163.22 66.06C151.02 66.06 139.91 60.95 131.6 52.57L130.53 54.17C130 54.96 128.93 55.17 128.14 54.64C127.35 54.11 127.14 53.04 127.67 52.25L129.2 49.97L130.73 47.68L131.67 46.28C132.2 45.49 133.27 45.28 134.06 45.81C134.55 46.14 134.82 46.69 134.82 47.24C134.82 47.57 134.73 47.9 134.53 48.2L133.52 49.71C141.5 55.09 151.13 58.24 161.49 58.24C177.16 58.24 191.14 51.05 200.3 39.8L198.81 38.56C198.4 38.22 198.19 37.73 198.19 37.24C198.19 36.85 198.32 36.46 198.59 36.14C199.2 35.41 200.28 35.31 201.01 35.92L202.38 37.06L204.52 38.84L206.54 40.52C207.27 41.13 207.37 42.21 206.76 42.94H206.75Z" fill="#00582E"/>
<path d="M18 14.57C18.63 15.22 18.95 16.03 18.95 16.97C18.95 17.91 18.63 18.73 18 19.39C17.37 20.05 16.56 20.39 15.62 20.39H6.89C6.81 20.39 6.8 20.39 6.8 20.48V31.15C6.8 32.1 6.47 32.9 5.82 33.53C5.17 34.16 4.36 34.48 3.42 34.48C2.48 34.48 1.66 34.16 1 33.53C0.34 32.9 0 32.1 0 31.15V3.42C0 2.47 0.33 1.66 0.97 1C1.62 0.34 2.43 0 3.38 0H15.62C16.57 0 17.37 0.33 18 0.98C18.63 1.63 18.95 2.44 18.95 3.38C18.95 4.32 18.63 5.14 18 5.8C17.37 6.46 16.56 6.8 15.62 6.8H6.89C6.81 6.8 6.8 6.8 6.8 6.89V13.51C6.8 13.59 6.8 13.6 6.89 13.6H15.62C16.57 13.6 17.37 13.93 18 14.58V14.57Z" fill="#00582E"/>
<path d="M43.38 12.35C42.91 11.6 42.16 11.17 41.15 11.07H40.86C39.66 11.07 38.76 11.56 38.18 12.53C36.34 11.44 34.34 10.89 32.22 10.89C29 10.89 26.2 12.06 23.9 14.36C21.6 16.66 20.43 19.46 20.43 22.68C20.43 25.9 21.6 28.7 23.9 31C26.2 33.31 29 34.47 32.22 34.47C34.4 34.47 36.4 33.93 38.18 32.88C38.73 33.82 39.63 34.29 40.86 34.29H41.13C42.09 34.29 42.83 33.9 43.33 33.13C43.81 32.38 44.06 31.47 44.06 30.42V14.99C44.06 13.97 43.83 13.08 43.38 12.35ZM32.22 28.08C30.72 28.08 29.44 27.55 28.41 26.51C27.38 25.47 26.87 24.18 26.87 22.68C26.87 21.93 27 21.23 27.26 20.59C27.52 19.95 27.9 19.37 28.42 18.85C29.44 17.81 30.72 17.29 32.23 17.29C33.74 17.29 35.01 17.81 36.04 18.83C37.06 19.86 37.58 21.15 37.58 22.68C37.58 24.21 37.06 25.51 36.04 26.53C35.02 27.55 33.73 28.07 32.23 28.07L32.22 28.08Z" fill="#00582E"/>
<path d="M62.17 14.27C62.17 15.21 61.89 16 61.34 16.62C60.78 17.24 60.06 17.56 59.2 17.56C58.83 17.56 58.45 17.54 58.05 17.49C57.67 17.45 57.18 17.42 56.59 17.42C55.7 17.42 54.98 17.72 54.38 18.33C53.79 18.94 53.49 19.92 53.49 21.24V30.42C53.49 31.63 53.19 32.59 52.59 33.29C51.99 33.99 51.23 34.34 50.34 34.34C48.22 34.34 47.1 33.02 47.01 30.43V14.63C47.01 13.42 47.32 12.48 47.94 11.85C48.56 11.22 49.35 10.89 50.3 10.89C51.64 10.89 52.58 11.55 53.08 12.86C54.5 11.55 56.17 10.89 58.04 10.89C59.19 10.89 60.18 11.24 60.97 11.92C61.77 12.61 62.18 13.4 62.18 14.26L62.17 14.27Z" fill="#00582E"/>
<path d="M98.46 21.02V30.42C98.46 31.69 98.17 32.66 97.59 33.31C97.01 33.96 96.24 34.29 95.31 34.29C94.38 34.29 93.55 33.96 92.96 33.31C92.37 32.66 92.07 31.69 92.07 30.42V21.11C92.07 20.09 91.71 19.2 90.99 18.47C90.28 17.74 89.4 17.38 88.39 17.38C87.38 17.38 86.55 17.72 85.85 18.39C85.15 19.06 84.77 19.88 84.71 20.85V30.43C84.71 31.7 84.42 32.67 83.84 33.32C83.26 33.97 82.49 34.3 81.56 34.3C80.63 34.3 79.8 33.97 79.21 33.32C78.62 32.67 78.32 31.7 78.32 30.43V21.12C78.32 20.1 77.96 19.21 77.24 18.48C76.52 17.75 75.65 17.39 74.64 17.39C73.63 17.39 72.81 17.73 72.1 18.4C71.4 19.07 71.02 19.89 70.96 20.86V30.44C70.96 31.65 70.66 32.61 70.07 33.31C69.47 34.01 68.73 34.36 67.85 34.36C65.76 34.36 64.66 33.04 64.57 30.45V14.65C64.57 13.44 64.88 12.5 65.49 11.87C66.1 11.24 66.88 10.91 67.81 10.91C68.74 10.91 69.59 11.3 70.2 12.06C71.36 11.3 72.85 10.91 74.64 10.91C77.45 10.91 79.76 11.65 81.51 13.1C83.27 11.64 85.58 10.91 88.38 10.91C91.52 10.91 94.01 11.81 95.78 13.57C97.55 15.34 98.45 17.85 98.45 21.04L98.46 21.02Z" fill="#00582E"/>
<path d="M123.92 12.35C123.45 11.6 122.7 11.17 121.69 11.07H121.4C120.2 11.07 119.3 11.56 118.72 12.53C116.88 11.44 114.88 10.89 112.76 10.89C109.54 10.89 106.74 12.06 104.44 14.36C102.13 16.67 100.97 19.46 100.97 22.68C100.97 25.9 102.14 28.7 104.44 31C106.74 33.31 109.54 34.47 112.76 34.47C114.94 34.47 116.94 33.93 118.72 32.88C119.27 33.82 120.17 34.29 121.4 34.29H121.67C122.63 34.29 123.37 33.9 123.87 33.13C124.35 32.38 124.6 31.47 124.6 30.42V14.99C124.6 13.97 124.37 13.08 123.92 12.35ZM116.57 26.54C115.55 27.56 114.26 28.08 112.76 28.08C111.26 28.08 109.98 27.55 108.95 26.51C107.93 25.47 107.41 24.18 107.41 22.68C107.41 21.93 107.54 21.23 107.8 20.59C108.06 19.95 108.44 19.37 108.96 18.85C109.98 17.81 111.26 17.29 112.77 17.29C114.28 17.29 115.55 17.81 116.58 18.83C117.6 19.86 118.12 21.15 118.12 22.68C118.12 24.21 117.6 25.51 116.58 26.53L116.57 26.54Z" fill="#00582E"/>
<path d="M144.7 15.23C145.94 13.53 146.57 11.54 146.57 9.32C146.57 6.85 145.73 4.71 144.07 2.96C142.41 1.21 140.3 0.23 137.78 0.05C137.67 0.02 137.53 0 137.34 0H130.86C129.91 0 129.1 0.34 128.46 1C127.81 1.66 127.49 2.48 127.49 3.42V30.69C127.49 31.64 127.82 32.45 128.46 33.11C129.11 33.77 129.92 34.11 130.86 34.11H138.11C141 34.05 143.48 32.97 145.51 30.9C147.53 28.83 148.55 26.32 148.55 23.44C148.55 20.13 147.26 17.36 144.7 15.22V15.23ZM134.28 6.89C134.28 6.81 134.28 6.8 134.37 6.8H136.89C137.79 6.8 138.55 7.11 139.14 7.71C139.74 8.33 140.03 9.04 140.03 9.9C140.03 10.32 139.96 10.73 139.82 11.1C139.68 11.47 139.47 11.82 139.2 12.14C138.65 12.77 137.96 13.12 137.15 13.18H134.37C134.29 13.18 134.28 13.18 134.28 13.09V6.88V6.89ZM140.62 26.09C139.88 26.9 138.96 27.31 137.88 27.31H134.37C134.29 27.31 134.28 27.31 134.28 27.22V19.16C134.28 19.08 134.28 19.07 134.37 19.07H137.88C138.96 19.07 139.88 19.47 140.63 20.27C141.37 21.07 141.75 22.04 141.75 23.16C141.75 24.28 141.37 25.26 140.63 26.07L140.62 26.09Z" fill="#B32B2A"/>
<path d="M157.94 6.48C157.94 7.37 157.61 8.14 156.96 8.79C156.31 9.44 155.55 9.77 154.69 9.77C153.83 9.77 153.02 9.44 152.38 8.79C151.73 8.14 151.4 7.37 151.4 6.48C151.4 5.59 151.73 4.86 152.38 4.21C153.03 3.56 153.81 3.23 154.69 3.23C155.57 3.23 156.31 3.56 156.96 4.21C157.61 4.86 157.94 5.62 157.94 6.48Z" fill="#B32B2A"/>
<path d="M157.89 14.99V30.42C157.89 31.69 157.59 32.66 157.01 33.31C156.42 33.96 155.64 34.29 154.69 34.29C153.74 34.29 152.91 33.96 152.31 33.31C151.71 32.66 151.41 31.69 151.41 30.42V14.99C151.41 13.72 151.71 12.74 152.31 12.08C152.91 11.41 153.72 11.07 154.7 11.07C155.62 11.07 156.39 11.41 157 12.08C157.6 12.74 157.9 13.72 157.9 14.99H157.89Z" fill="#B32B2A"/>
<path d="M184 21.36C183.7 18.39 182.44 15.87 180.27 13.89C178.1 11.9 175.48 10.89 172.47 10.89C169.19 10.89 166.37 12.04 164.08 14.32C161.79 16.59 160.63 19.39 160.63 22.64C160.63 25.89 161.79 28.74 164.08 31.03C166.37 33.32 169.19 34.48 172.47 34.48C175.75 34.48 178.33 33.43 180.43 31.37C181.15 30.71 181.52 29.89 181.52 28.94C181.52 28.23 181.28 27.64 180.81 27.17C180.34 26.7 179.73 26.46 178.99 26.46C178.86 26.46 178.62 26.49 178.24 26.55C177.95 26.62 177.21 26.94 175.97 27.53C174.79 28.1 173.61 28.39 172.47 28.39C171.44 28.39 170.47 28.05 169.61 27.39C168.75 26.73 168.09 25.91 167.66 24.94H180.75C181.64 24.94 182.41 24.61 183.04 23.96C183.67 23.31 183.99 22.54 183.99 21.65V21.36H184ZM167.78 20.07C168.21 19.26 168.86 18.61 169.71 18.12C170.56 17.63 171.49 17.38 172.48 17.38C174.51 17.38 176.01 18.26 177.06 20.07H167.78Z" fill="#B32B2A"/>
<path d="M207.15 21.02V30.42C207.15 31.69 206.85 32.66 206.27 33.31C205.68 33.96 204.9 34.29 203.95 34.29C203 34.29 202.17 33.96 201.57 33.31C200.97 32.66 200.67 31.69 200.67 30.42V21.11C200.67 20.09 200.3 19.2 199.58 18.47C198.85 17.74 197.97 17.38 196.94 17.38C195.91 17.38 195.08 17.72 194.37 18.39C193.66 19.06 193.27 19.88 193.21 20.85V30.43C193.21 31.64 192.91 32.6 192.31 33.3C191.71 34 190.95 34.35 190.06 34.35C187.94 34.35 186.82 33.03 186.73 30.44V14.64C186.73 13.43 187.04 12.49 187.66 11.86C188.28 11.23 189.07 10.9 190.02 10.9C190.97 10.9 191.82 11.29 192.44 12.05C193.62 11.29 195.13 10.9 196.95 10.9C200.13 10.9 202.66 11.8 204.46 13.56C206.26 15.33 207.17 17.84 207.17 21.03L207.15 21.02Z" fill="#B32B2A"/>
</g>
<defs>
<clipPath id="clip0_1_2">
<rect width="207.15" height="66.06" fill="white"/>
</clipPath>
</defs>
</svg>
